<svg width="18" height="18" viewBox="0 0 18 18" fill="none" xmlns="http://www.w3.org/2000/svg">
<path d="M1.80273 9.07309C2.50282 8.80373 3.20824 8.64504 3.95634 8.58637C3.95634 8.02763 3.955 7.46889 3.955 6.91016C3.1629 7.5569 2.46548 8.29566 1.80273 9.07309Z" fill="#00247D"/>
<path d="M5.29492 8.58379C6.21637 8.6318 7.13382 8.73715 8.04727 8.86783C7.14982 8.18641 6.22304 7.545 5.29492 6.90625C5.29492 7.46499 5.29492 8.02372 5.29492 8.58379Z" fill="#00247D"/>
<path d="M1 7.62027C1 8.02298 1 8.42437 1 8.82708C1.5014 8.20034 2.00946 7.58159 2.55486 6.99219C2.01346 7.15087 1.50273 7.36423 1 7.62027Z" fill="#00247D"/>
<path d="M8.02931 3.38331C7.1212 3.25129 6.21042 3.13794 5.29297 3.08594C5.29297 3.64334 5.29297 4.20074 5.2943 4.75815C6.17708 4.24475 7.10386 3.81403 8.02931 3.38331Z" fill="#00247D"/>
<path d="M3.95052 3.08984C3.19309 3.15919 2.47433 3.33254 1.76758 3.61524C2.53967 3.91661 3.25576 4.31533 3.95318 4.76072C3.95185 4.20465 3.95185 3.64725 3.95052 3.08984Z" fill="#00247D"/>
<path d="M9.00179 8.40253C9.00179 7.99715 9.00179 7.5931 9.00179 7.18771C8.35104 7.0797 7.70029 6.98369 7.04688 6.90234C7.71229 7.38374 8.36971 7.87713 9.00179 8.40253Z" fill="#00247D"/>
<path d="M1 4.59375C1 4.99647 1 5.40052 1 5.80323C1.4974 5.5472 2.00546 5.33384 2.54286 5.17249C2.0428 4.93246 1.53473 4.73777 1 4.59375Z" fill="#00247D"/>
<path d="M9.00064 5.35802C9.00064 4.95397 9.00064 4.54858 9.00064 4.14453C8.35123 4.4619 7.69248 4.76061 7.03906 5.07131C7.69514 5.15399 8.34856 5.25134 9.00064 5.35802Z" fill="#00247D"/>
<path d="M3.34296 6.82422C3.07759 6.86822 2.81489 6.92156 2.55486 6.99624C2.00946 7.58431 1.5014 8.20439 1 8.83114C1 9.03516 1 9.23785 1 9.44188C1.73476 8.5271 2.48419 7.62565 3.34296 6.82422Z" fill="white"/>
<path d="M5.29297 4.91758C5.32231 4.91891 5.33831 4.92024 5.36764 4.92158C6.33443 4.36684 7.34923 3.90812 8.35735 3.43472C8.57205 3.46806 8.78674 3.5014 9.00143 3.53607C8.67739 3.48406 8.35335 3.43472 8.02931 3.38672C7.10386 3.81611 6.17708 4.24683 5.29297 4.76022C5.29297 4.8229 5.29297 4.8549 5.29297 4.91758Z" fill="white"/>
<path d="M9.0001 9.01704C8.05065 8.22361 7.04252 7.50352 6.02773 6.79677C5.78236 6.77676 5.53833 6.75943 5.29297 6.74609C5.29297 6.80877 5.29297 6.84077 5.29297 6.90345C6.22108 7.54219 7.14787 8.18361 8.04531 8.86503C8.36535 8.91437 8.68273 8.9637 9.0001 9.01704Z" fill="white"/>
<path d="M2.80289 5.10585C2.22282 4.80581 1.62941 4.56311 1 4.39243C1 4.25641 1 4.12039 1 3.98438C1 4.1884 1 4.39376 1 4.59778C1.53473 4.7418 2.0428 4.93649 2.54286 5.17519C2.64554 5.14585 2.69755 5.13119 2.80289 5.10585Z" fill="white"/>
<path d="M3.95465 6.75391C3.92798 6.75524 3.91598 6.75657 3.88931 6.75924C3.01853 7.482 2.26377 8.31543 1.54102 9.18354C1.64636 9.13687 1.69837 9.11554 1.80238 9.0742C2.46513 8.29677 3.16122 7.55801 3.95332 6.91126C3.95465 6.84858 3.95465 6.81791 3.95465 6.75391Z" fill="white"/>
<path d="M6.70703 6.86719C7.4898 7.42459 8.26323 7.99533 9.00065 8.61141C9.00065 8.53006 9.00065 8.48872 9.00065 8.40605C8.36857 7.88065 7.71116 7.38725 7.04574 6.90586C6.90972 6.88986 6.84171 6.88186 6.70703 6.86719Z" fill="white"/>
<path d="M3.95237 4.92002C3.95237 4.85734 3.95237 4.82534 3.95237 4.76266C3.25495 4.31727 2.53886 3.91723 1.76676 3.61719C1.5054 3.72653 1.25203 3.84788 1 3.9799C1.8281 4.20793 2.59487 4.56264 3.33629 4.99336C3.54165 4.96269 3.74568 4.93735 3.95237 4.92002Z" fill="white"/>
<path d="M6.02734 4.96734C6.36605 4.99801 6.70343 5.03401 7.0408 5.07535C7.69422 4.76464 8.35297 4.46594 9.00238 4.14857C9.00238 3.94454 9.00238 3.73918 9.00238 3.53516C8.01293 4.01788 7.00347 4.45927 6.02734 4.96734Z" fill="white"/>
<path d="M6.0293 6.80078C7.04409 7.50887 8.05222 8.22763 9.00167 9.02106C9.00167 8.88504 9.00167 8.74769 9.00167 8.61167C8.26424 7.9956 7.49081 7.42486 6.70805 6.86746C6.48135 6.84345 6.25599 6.82078 6.0293 6.80078Z" fill="#CF142B"/>
<path d="M1.5414 9.18212C2.26416 8.31401 3.01892 7.48057 3.88969 6.75781C3.70701 6.77515 3.52432 6.79382 3.34296 6.82315C2.48419 7.62459 1.73476 8.52603 1 9.43948C1.17869 9.35014 1.35871 9.26479 1.5414 9.18212Z" fill="#CF142B"/>
<path d="M9.00098 3.53103C8.78628 3.49636 8.57159 3.46302 8.35689 3.42969C7.34877 3.90308 6.33398 4.3618 5.36719 4.91654C5.58722 4.92854 5.80591 4.94454 6.0246 4.96455C7.00206 4.45515 8.01152 4.01376 9.00098 3.53103Z" fill="#CF142B"/>
<path d="M2.80289 5.10585C2.97891 5.06318 3.1576 5.02717 3.33629 4.99784C2.59487 4.56578 1.82944 4.21107 1 3.98438C1 4.12039 1 4.25641 1 4.39243C1.62941 4.56311 2.22282 4.80581 2.80289 5.10585Z" fill="#CF142B"/>
<path d="M5.00977 5.27183C6.34993 5.3225 7.67943 5.51319 9.00093 5.72788C9.00093 5.5812 9.00093 5.50786 9.00093 5.3625C8.34885 5.25582 7.69543 5.15848 7.03935 5.0758C6.70198 5.03446 6.3646 4.99846 6.02589 4.96779C5.8072 4.94779 5.58717 4.93312 5.36848 4.91978C5.33914 4.91845 5.32314 4.91712 5.2938 4.91578C5.2938 4.85311 5.2938 4.8211 5.2938 4.75843C5.2938 4.20103 5.2938 3.64362 5.29247 3.08622C5.17779 3.08089 5.12178 3.07822 5.00977 3.07422C5.00977 3.80764 5.00977 4.53974 5.00977 5.27183Z" fill="white"/>
<path d="M3.34296 6.82315C3.52432 6.79515 3.70701 6.77514 3.88969 6.75781C3.91503 6.75514 3.92837 6.75514 3.95504 6.75247C3.95504 6.81515 3.95504 6.84715 3.95504 6.90983C3.95504 7.46856 3.95637 8.0273 3.95637 8.58604C4.05638 8.57937 4.10706 8.5767 4.2084 8.5727C4.2084 7.83928 4.2084 7.10452 4.20707 6.37109C3.06426 6.43377 2.01879 6.74047 1 7.2592C1 7.40456 1 7.4779 1 7.62325C1.50273 7.36855 2.01346 7.15386 2.55486 6.99517C2.81356 6.9205 3.07759 6.86716 3.34296 6.82315Z" fill="white"/>
<path d="M4.20707 5.2744C4.20707 4.54231 4.20707 3.81022 4.20573 3.07812C4.10172 3.08346 4.05105 3.08613 3.9497 3.09413C3.9497 3.65153 3.95104 4.20893 3.95104 4.76634C3.95104 4.82901 3.95104 4.86101 3.95104 4.92369C3.74434 4.94236 3.53898 4.96636 3.33496 4.99703C3.15627 5.02637 2.97758 5.06237 2.80156 5.10505C2.69755 5.13038 2.64554 5.14505 2.54153 5.17439C2.00546 5.33707 1.4974 5.55043 1 5.8078C1 5.95315 1 6.02649 1 6.17184C2.01746 5.64911 3.06426 5.33974 4.20707 5.2744Z" fill="white"/>
<path d="M5.01172 6.36719C5.01172 7.10195 5.01172 7.83537 5.01172 8.57013C5.12373 8.57413 5.18107 8.57546 5.29575 8.5808C5.29575 8.02206 5.29575 7.46199 5.29442 6.90325C5.29442 6.84058 5.29442 6.80858 5.29442 6.7459C5.53978 6.75924 5.78515 6.77657 6.02918 6.79657C6.25587 6.81658 6.48124 6.83925 6.7066 6.86325C6.84128 6.87792 6.90929 6.88592 7.04531 6.90192C7.69872 6.98326 8.3508 7.07928 9.00022 7.18729C9.00022 7.04061 9.00022 6.96726 9.00022 6.82191C7.68005 6.60322 6.35055 6.41653 5.01172 6.36719Z" fill="white"/>
<path d="M4.2084 6.37082C4.2084 7.10424 4.2084 7.839 4.20973 8.57243C4.47643 8.56176 4.74447 8.56443 5.01117 8.57109C5.01117 7.83634 5.01117 7.10291 5.01117 6.36815C6.35 6.41883 7.68084 6.60418 9.001 6.82154C9.001 6.45616 9.001 6.08945 9.001 5.72407C7.6795 5.50804 6.35 5.31869 5.00983 5.26801C5.00983 4.53592 5.00983 3.80383 5.00983 3.07174C4.87382 3.06907 4.73647 3.06641 4.60045 3.06641C4.46977 3.06641 4.33775 3.06907 4.20707 3.07574C4.20707 3.80783 4.20707 4.53992 4.2084 5.27202C3.06426 5.33602 2.01746 5.6454 1 6.16813C1 6.34948 1 6.53217 1 6.71353C1 6.89489 1 7.07757 1 7.25893C2.01879 6.7402 3.06426 6.43349 4.2084 6.37082Z" fill="#CF142B"/>
<path d="M9.00162 3.53428C9.00162 3.7383 9.00162 3.94366 9.00162 4.14769C9.00162 4.55174 9.00162 4.95712 9.00162 5.36117C9.00162 5.50786 9.00162 5.5812 9.00162 5.72655C9.00162 6.09193 9.00162 6.45864 9.00162 6.82402C9.00162 6.97071 9.00162 7.04405 9.00162 7.1894C9.00162 7.59478 9.00162 7.99883 9.00162 8.40422C9.00162 8.48556 9.00162 8.5269 9.00162 8.60958C9.00162 8.74559 9.00162 8.88294 9.00162 9.01896C8.68425 8.96562 8.36687 8.91495 8.04817 8.86828C7.13472 8.73626 6.21861 8.63225 5.29582 8.58424C5.18114 8.57891 5.1238 8.57624 5.01179 8.57357C4.74509 8.56691 4.47705 8.5629 4.21035 8.57491C4.10767 8.57891 4.05834 8.58157 3.95832 8.58824C3.21023 8.64691 2.50481 8.8056 1.80472 9.07497C1.70071 9.11631 1.6487 9.13764 1.54335 9.18432C1.36066 9.26566 1.18064 9.35234 1.00195 9.44168C1.00195 10.0471 1.00195 10.6525 1.00195 11.2579C1.00195 12.4714 1.00195 13.6862 1.00195 14.8997C2.28878 14.281 3.56361 14.0343 4.98645 14.0703C6.33329 14.1049 7.67745 14.273 9.00295 14.505C10.3285 14.737 11.674 14.9037 13.0208 14.937C14.4356 14.9717 15.7385 14.6823 17.004 14.0449C17.004 10.3885 17.004 6.73068 17.004 3.07422C15.8411 3.59162 14.6877 3.981 13.4035 3.98367C11.9273 3.98633 10.4538 3.76364 9.00162 3.53428ZM16.2305 7.48944C16.1292 7.64679 16.0265 7.80281 15.9238 7.95883C15.9652 8.13352 16.0052 8.30687 16.0465 8.48156C15.9425 8.40288 15.8398 8.32288 15.7385 8.2402C15.6384 8.38955 15.5384 8.5389 15.4371 8.68692C15.4744 8.48556 15.5131 8.28554 15.5504 8.08418C15.4478 7.9975 15.3451 7.91082 15.2451 7.82148C15.3704 7.78814 15.4944 7.75214 15.6171 7.71213C15.6545 7.51077 15.6918 7.30941 15.7278 7.10672C15.7678 7.28141 15.8091 7.45743 15.8491 7.63212C15.9772 7.58812 16.1052 7.54011 16.2305 7.48944ZM15.6171 6.07193C15.5558 6.26395 15.4944 6.45731 15.4331 6.64933C15.5171 6.77068 15.6024 6.89203 15.6891 7.01204C15.5411 7.01204 15.4678 7.00938 15.3211 7.00004C15.2597 7.1894 15.1984 7.37876 15.1357 7.56945C15.1211 7.37476 15.1077 7.17873 15.093 6.98404C14.9464 6.97071 14.8717 6.96137 14.7223 6.94004C14.8384 6.83602 14.9517 6.73201 15.065 6.62533C15.0504 6.4293 15.037 6.23461 15.0224 6.03859C15.1064 6.16527 15.1904 6.29062 15.2744 6.4173C15.3904 6.30262 15.5038 6.18794 15.6171 6.07193ZM14.0356 5.48519C14.1543 5.55453 14.2743 5.6212 14.3956 5.68655C14.4823 5.52653 14.5663 5.36517 14.6503 5.20382C14.6383 5.40518 14.625 5.6052 14.613 5.80656C14.7277 5.86657 14.8424 5.92391 14.9584 5.97858C14.837 6.04792 14.713 6.11327 14.5877 6.17594C14.5757 6.37596 14.5623 6.57732 14.5503 6.77735C14.4863 6.61333 14.421 6.45064 14.357 6.28662C14.2289 6.34529 14.0996 6.39997 13.9676 6.45064C14.0583 6.29595 14.1463 6.13994 14.2343 5.98392C14.1676 5.81723 14.1023 5.65187 14.0356 5.48519ZM13.4022 4.91445C13.4475 5.10247 13.4928 5.2905 13.5369 5.47985C13.6755 5.47852 13.8142 5.47185 13.9516 5.46252C13.8422 5.58653 13.7315 5.70921 13.6169 5.82923C13.6609 6.01592 13.7049 6.20394 13.7475 6.39063C13.6315 6.27729 13.5169 6.16394 13.4008 6.05059C13.2835 6.16794 13.1635 6.28262 13.0421 6.39597C13.0888 6.20794 13.1355 6.02125 13.1821 5.83323C13.0595 5.71188 12.9368 5.5892 12.8141 5.46785C12.9648 5.47319 13.1141 5.47719 13.2635 5.47985C13.3115 5.29183 13.3568 5.10381 13.4022 4.91445ZM11.9727 5.24382C12.0793 5.39984 12.1847 5.55453 12.2914 5.71055C12.4354 5.63987 12.5781 5.56786 12.7194 5.49452C12.6421 5.66388 12.5634 5.8319 12.4847 6.00125C12.5887 6.15327 12.6941 6.30662 12.7981 6.45864C12.6447 6.41064 12.4927 6.35996 12.3394 6.30929C12.2594 6.47731 12.1794 6.644 12.0993 6.81069C12.0833 6.61066 12.0673 6.41064 12.05 6.21061C11.8913 6.15594 11.7326 6.10126 11.5753 6.04392C11.7233 5.97858 11.8713 5.91057 12.018 5.84256C12.0033 5.64387 11.9887 5.44385 11.9727 5.24382ZM10.7125 6.22261C10.8619 6.32129 11.0112 6.41997 11.1619 6.51732C11.2726 6.3813 11.3819 6.24662 11.4913 6.10926C11.4739 6.30662 11.4566 6.50265 11.4379 6.70001C11.5859 6.79468 11.734 6.88936 11.882 6.98271C11.722 7.01071 11.5633 7.03738 11.4033 7.06138C11.3859 7.25874 11.3672 7.45477 11.3499 7.65212C11.2686 7.46943 11.1859 7.28808 11.1046 7.10539C10.9432 7.12806 10.7818 7.15073 10.6192 7.17206C10.7298 7.03871 10.8405 6.90403 10.9512 6.76935C10.8725 6.58799 10.7925 6.4053 10.7125 6.22261ZM10.7205 7.86282C10.8845 7.88282 11.0499 7.90282 11.2139 7.92016C11.0805 8.02284 10.9472 8.12418 10.8125 8.22553C10.8632 8.42022 10.9139 8.61624 10.9645 8.81094C10.8312 8.67759 10.6978 8.54424 10.5658 8.41089C10.4325 8.5109 10.2991 8.60958 10.1658 8.70959C10.2178 8.5269 10.2698 8.34554 10.3218 8.16285C10.1898 8.02817 10.0578 7.89215 9.92707 7.75614C10.0898 7.78014 10.2538 7.80281 10.4165 7.82415C10.4671 7.64146 10.5191 7.45877 10.5698 7.27741C10.6218 7.4721 10.6712 7.66813 10.7205 7.86282ZM10.1551 8.83494C10.2631 8.99763 10.3725 9.16031 10.4818 9.32167C10.6325 9.26032 10.7832 9.19898 10.9339 9.13631C10.8499 9.299 10.7672 9.46302 10.6832 9.6257C10.7925 9.78706 10.9019 9.94708 11.0125 10.1071C10.8499 10.0471 10.6885 9.98575 10.5271 9.92441C10.4445 10.0871 10.3605 10.2484 10.2778 10.4111C10.2618 10.2098 10.2458 10.0084 10.2284 9.80706C10.0698 9.74439 9.90973 9.67904 9.75238 9.6137C9.9004 9.55503 10.0498 9.49502 10.1978 9.43635C10.1831 9.23766 10.1684 9.0363 10.1551 8.83494ZM10.2284 11.4846C10.3391 11.3513 10.4485 11.2179 10.5591 11.0846C10.4765 10.9005 10.3951 10.7165 10.3138 10.5325C10.4631 10.6325 10.6125 10.7325 10.7632 10.8312C10.8739 10.6965 10.9859 10.5618 11.0965 10.4271C11.0792 10.6245 11.0605 10.8205 11.0432 11.0179C11.1926 11.1152 11.3432 11.2112 11.4953 11.3059C11.3339 11.3326 11.1712 11.3566 11.0085 11.3793C10.9912 11.5766 10.9725 11.7726 10.9552 11.97C10.8725 11.7873 10.7898 11.6046 10.7085 11.4219C10.5471 11.4446 10.3871 11.4646 10.2284 11.4846ZM11.2726 13.0181C11.3246 12.8341 11.3779 12.6501 11.4299 12.4674C11.2966 12.3367 11.1632 12.206 11.0299 12.074C11.1952 12.0927 11.3606 12.1087 11.5246 12.1247C11.5753 11.9393 11.6259 11.754 11.678 11.5686C11.7286 11.762 11.7793 11.9553 11.83 12.1487C11.9913 12.162 12.1527 12.174 12.3154 12.1834C12.186 12.2927 12.054 12.4007 11.922 12.5061C11.9727 12.6981 12.0233 12.8914 12.0727 13.0835C11.9407 12.9568 11.8086 12.8288 11.6766 12.7008C11.5433 12.8088 11.4086 12.9141 11.2726 13.0181ZM12.6821 13.8942C12.6661 13.6955 12.6501 13.4955 12.6341 13.2968C12.4781 13.2475 12.3207 13.1968 12.166 13.1461C12.3127 13.0768 12.4581 13.0048 12.6034 12.9301C12.5874 12.7314 12.5714 12.5314 12.5541 12.3327C12.6581 12.4847 12.7621 12.6354 12.8661 12.7874C13.0048 12.7128 13.1435 12.6354 13.2795 12.5554C13.2048 12.7274 13.1301 12.8994 13.0541 13.0701C13.1541 13.2182 13.2542 13.3675 13.3515 13.5155C13.2048 13.4715 13.0581 13.4275 12.9101 13.3835C12.8354 13.5555 12.7594 13.7249 12.6821 13.8942ZM14.0729 13.8849C14.0036 13.7169 13.9342 13.5489 13.8649 13.3808C13.7262 13.4288 13.5875 13.4742 13.4475 13.5169C13.5449 13.3688 13.6395 13.2195 13.7329 13.0688C13.6622 12.8981 13.5902 12.7261 13.5182 12.5554C13.6462 12.6314 13.7755 12.7074 13.9036 12.7821C13.9969 12.6287 14.0876 12.4741 14.1769 12.318C14.1636 12.5181 14.1489 12.7181 14.1356 12.9181C14.2569 12.9861 14.3796 13.0515 14.5036 13.1168C14.373 13.1755 14.2423 13.2328 14.1089 13.2862C14.0983 13.4849 14.0849 13.6849 14.0729 13.8849ZM15.2157 12.9261C15.1104 12.8341 15.0064 12.7408 14.9024 12.6461C14.7997 12.7834 14.6943 12.9194 14.5877 13.0528C14.6277 12.8568 14.669 12.6621 14.709 12.4661C14.6023 12.366 14.4943 12.2647 14.389 12.1634C14.521 12.1474 14.6517 12.126 14.7823 12.102C14.821 11.9047 14.8597 11.7073 14.8984 11.5086C14.9397 11.6886 14.9797 11.8687 15.021 12.05C15.1491 12.022 15.2757 11.99 15.4024 11.954C15.3024 12.098 15.1997 12.242 15.0957 12.3834C15.1344 12.5647 15.1757 12.7448 15.2157 12.9261ZM15.4531 11.8473C15.4384 11.6526 15.4238 11.4579 15.4091 11.2632C15.2851 11.2566 15.1597 11.2472 15.0357 11.2339C15.1531 11.1259 15.2677 11.0165 15.3811 10.9045C15.3664 10.7098 15.3517 10.5151 15.3384 10.3191C15.4224 10.4418 15.5078 10.5645 15.5931 10.6872C15.7091 10.5698 15.8225 10.4498 15.9358 10.3298C15.8745 10.5245 15.8118 10.7205 15.7505 10.9152C15.8345 11.0339 15.9198 11.1512 16.0052 11.2686C15.8571 11.2739 15.7825 11.2752 15.6344 11.2712C15.5744 11.4646 15.5144 11.6553 15.4531 11.8473ZM15.9612 10.2044C15.8958 10.0538 15.8318 9.90307 15.7678 9.75239C15.6465 9.83373 15.5238 9.91374 15.3998 9.99242C15.4824 9.81906 15.5664 9.64704 15.6478 9.47369C15.5838 9.32033 15.5184 9.16698 15.4558 9.01363C15.5931 9.06963 15.6625 9.0963 15.8011 9.14431C15.8851 8.96696 15.9678 8.78827 16.0505 8.60958C16.0385 8.8136 16.0265 9.01629 16.0145 9.22032C16.1532 9.26433 16.2239 9.28566 16.3652 9.323C16.2412 9.41501 16.1172 9.50569 15.9918 9.59503C15.9812 9.79773 15.9718 10.0004 15.9612 10.2044Z" fill="#00247D"/>
<path d="M13.6178 5.83284C13.7312 5.7115 13.8432 5.58748 13.9525 5.46213C13.8152 5.4728 13.6752 5.47813 13.5378 5.47947C13.4925 5.29144 13.4485 5.10209 13.4031 4.91406C13.3578 5.10209 13.3125 5.29144 13.2658 5.47947C13.1151 5.4768 12.9658 5.4728 12.8164 5.46747C12.9391 5.58881 13.0604 5.71016 13.1818 5.83284C13.1364 6.02087 13.0911 6.20889 13.0444 6.39558C13.1658 6.28223 13.2858 6.16755 13.4031 6.0502C13.5178 6.16489 13.6325 6.27957 13.7472 6.39425C13.7032 6.20622 13.6605 6.01953 13.6178 5.83284Z" fill="white"/>
<path d="M14.3575 6.28726C14.4229 6.44995 14.4882 6.6113 14.5535 6.77399C14.5669 6.57396 14.5789 6.37527 14.5909 6.17525C14.7162 6.11391 14.8402 6.04723 14.9616 5.97789C14.8442 5.92188 14.7282 5.86321 14.6135 5.80187C14.6255 5.60184 14.6389 5.40315 14.6509 5.20312C14.5669 5.36448 14.4829 5.52583 14.3962 5.68585C14.2748 5.62051 14.1548 5.5525 14.0361 5.48449C14.1028 5.64985 14.1682 5.8152 14.2335 5.98056C14.1468 6.13791 14.0575 6.29526 13.9668 6.45128C14.0988 6.40061 14.2295 6.34593 14.3575 6.28726Z" fill="white"/>
<path d="M14.7227 6.9366C14.872 6.95794 14.9454 6.96727 15.0934 6.98061C15.108 7.1753 15.1214 7.37132 15.136 7.56601C15.1974 7.37666 15.2601 7.1873 15.3214 6.99661C15.4681 7.00461 15.5414 7.00728 15.6894 7.00861C15.6041 6.8886 15.5188 6.76725 15.4334 6.6459C15.4948 6.45388 15.5561 6.26052 15.6174 6.06849C15.5054 6.18451 15.3921 6.29919 15.2787 6.41254C15.1934 6.28719 15.1094 6.16051 15.024 6.03516C15.0387 6.22985 15.0534 6.42587 15.068 6.62056C14.9547 6.72858 14.84 6.83392 14.7227 6.9366Z" fill="white"/>
<path d="M15.2383 7.82413C15.3383 7.91348 15.441 8.00149 15.5437 8.08683C15.5063 8.28819 15.4703 8.49088 15.433 8.69224C15.5343 8.54422 15.6343 8.39487 15.7343 8.24552C15.8357 8.32819 15.9384 8.4082 16.0424 8.48688C16.0024 8.31086 15.9624 8.13484 15.9224 7.96015C16.025 7.80413 16.1264 7.64678 16.2291 7.49076C16.1037 7.54143 15.9757 7.58943 15.8477 7.63477C15.8064 7.46009 15.7663 7.28406 15.7263 7.10938C15.689 7.31073 15.653 7.51209 15.6157 7.71478C15.4916 7.75346 15.365 7.79079 15.2383 7.82413Z" fill="white"/>
<path d="M16.0198 9.21621C16.0318 9.01219 16.0438 8.80949 16.0558 8.60547C15.9731 8.78549 15.8891 8.96418 15.8064 9.1442C15.6664 9.09486 15.597 9.06686 15.4584 9.01085C15.5224 9.1642 15.5864 9.31756 15.6504 9.47091C15.5677 9.64426 15.485 9.81762 15.4023 9.98964C15.525 9.91097 15.6477 9.83229 15.7691 9.75094C15.8331 9.90163 15.8971 10.0523 15.9624 10.203C15.9744 9.99898 15.9864 9.79628 15.9971 9.59226C16.1224 9.50291 16.2464 9.41224 16.3705 9.32022C16.2291 9.28155 16.1584 9.26155 16.0198 9.21621Z" fill="white"/>
<path d="M15.9379 10.3296C15.8246 10.4523 15.7099 10.5723 15.5926 10.6924C15.5072 10.5683 15.4219 10.4443 15.3379 10.3203C15.3525 10.515 15.3672 10.7097 15.3805 10.9057C15.2672 11.0191 15.1525 11.1297 15.0352 11.2391C15.1845 11.2551 15.2592 11.2604 15.4059 11.2684C15.4205 11.4618 15.4365 11.6551 15.4512 11.8485C15.5125 11.6578 15.5739 11.4671 15.6352 11.2764C15.7832 11.2778 15.8579 11.2764 16.0059 11.2698C15.9206 11.1524 15.8353 11.0351 15.7512 10.9164C15.8153 10.719 15.8766 10.5243 15.9379 10.3296Z" fill="white"/>
<path d="M15.0162 12.0532C14.9762 11.8719 14.9362 11.6905 14.8949 11.5078C14.8562 11.7052 14.8162 11.9039 14.7762 12.1012C14.6455 12.1252 14.5148 12.1466 14.3828 12.1626C14.4895 12.2639 14.5962 12.3653 14.7029 12.4653C14.6628 12.6613 14.6228 12.856 14.5815 13.052C14.6895 12.9173 14.7949 12.7813 14.8989 12.644C15.0029 12.7386 15.1069 12.832 15.2123 12.924C15.1709 12.7453 15.1296 12.5653 15.0896 12.3866C15.1936 12.2439 15.2963 12.1012 15.3976 11.9559C15.2736 11.9932 15.1456 12.0252 15.0162 12.0532Z" fill="white"/>
<path d="M14.184 12.3164C14.0933 12.4738 14.0013 12.6298 13.9079 12.7845C13.7786 12.7085 13.6506 12.6311 13.5226 12.5538C13.5946 12.7245 13.6652 12.8951 13.7373 13.0672C13.6426 13.2179 13.5466 13.3672 13.4492 13.5152C13.5892 13.4726 13.7279 13.4272 13.8666 13.3792C13.9359 13.5472 14.0053 13.7152 14.0746 13.8833C14.0893 13.6832 14.1026 13.4846 14.116 13.2845C14.2493 13.2299 14.38 13.1738 14.5107 13.1152C14.3867 13.0512 14.2627 12.9858 14.14 12.9178C14.1546 12.7165 14.1693 12.5164 14.184 12.3164Z" fill="white"/>
<path d="M13.2802 12.5547C13.1442 12.6361 13.0068 12.7147 12.8668 12.7908C12.7628 12.6374 12.6575 12.4841 12.5521 12.332C12.5694 12.5307 12.5868 12.7307 12.6041 12.9294C12.4588 13.0041 12.3121 13.0748 12.1641 13.1455C12.3201 13.1975 12.4761 13.2468 12.6321 13.2962C12.6481 13.4948 12.6641 13.6949 12.6801 13.8936C12.7588 13.7242 12.8361 13.5535 12.9135 13.3842C13.0602 13.4282 13.2069 13.4722 13.3535 13.5162C13.2535 13.3668 13.1535 13.2188 13.0535 13.0708C13.1309 12.8988 13.2069 12.7267 13.2802 12.5547Z" fill="white"/>
<path d="M12.3129 12.1877C12.1516 12.1771 11.9889 12.1664 11.8275 12.1531C11.7769 11.9584 11.7262 11.7637 11.6755 11.5703C11.6248 11.7557 11.5742 11.941 11.5222 12.1264C11.3555 12.1104 11.1901 12.0944 11.0234 12.0757C11.1581 12.2077 11.2915 12.3384 11.4262 12.4691C11.3741 12.6531 11.3221 12.8371 11.2688 13.0198C11.4035 12.9158 11.5368 12.8118 11.6702 12.7065C11.8035 12.8345 11.9356 12.9612 12.0689 13.0892C12.0182 12.8971 11.9676 12.7038 11.9182 12.5118C12.0529 12.4051 12.1836 12.2971 12.3129 12.1877Z" fill="white"/>
<path d="M11.0434 11.0204C11.0607 10.8231 11.0794 10.627 11.0967 10.4297C10.986 10.5657 10.8754 10.7017 10.7633 10.8377C10.6113 10.7377 10.4606 10.6364 10.31 10.535C10.3913 10.7191 10.474 10.9031 10.5553 11.0871C10.4446 11.2205 10.3353 11.3538 10.2246 11.4872C10.386 11.4685 10.5473 11.4498 10.7087 11.4285C10.79 11.6098 10.8714 11.7912 10.9527 11.9725C10.9714 11.7765 10.9914 11.5818 11.01 11.3858C11.1714 11.3618 11.3327 11.3378 11.4928 11.3111C11.3447 11.2151 11.1941 11.1191 11.0434 11.0204Z" fill="white"/>
<path d="M10.5333 9.92541C10.6933 9.98675 10.8547 10.0481 11.0147 10.1081C10.9053 9.94808 10.7947 9.78672 10.6853 9.6267C10.7693 9.46402 10.852 9.3 10.936 9.13731C10.784 9.20132 10.632 9.26399 10.48 9.32667C10.3706 9.16398 10.2613 8.99996 10.1532 8.83594C10.1692 9.0373 10.1852 9.23866 10.2012 9.44001C10.0532 9.50002 9.90521 9.55869 9.75586 9.61737C9.91455 9.68271 10.0732 9.74672 10.2319 9.81073C10.2479 10.0121 10.2639 10.2134 10.2813 10.4148C10.3666 10.2494 10.4493 10.0881 10.5333 9.92541Z" fill="white"/>
<path d="M10.1658 8.71352C10.2992 8.61484 10.4325 8.51483 10.5659 8.41482C10.6979 8.54817 10.8312 8.68152 10.9646 8.81487C10.9152 8.61884 10.8646 8.42282 10.8152 8.2268C10.9499 8.12545 11.0833 8.0241 11.2166 7.92142C11.0513 7.90409 10.8859 7.88409 10.7205 7.86408C10.6712 7.66806 10.6205 7.47337 10.5712 7.27734C10.5192 7.46003 10.4672 7.64139 10.4152 7.82408C10.2512 7.80274 10.0885 7.78007 9.92578 7.75607C10.0565 7.89209 10.1885 8.0281 10.3205 8.16279C10.2672 8.34681 10.2165 8.53083 10.1658 8.71352Z" fill="white"/>
<path d="M11.1071 7.1055C11.1885 7.28819 11.2711 7.46954 11.3525 7.65223C11.3698 7.45488 11.3885 7.25885 11.4058 7.06149C11.5658 7.03616 11.7259 7.01082 11.8845 6.98282C11.7352 6.88947 11.5858 6.79479 11.4365 6.70012C11.4552 6.50276 11.4738 6.30673 11.4925 6.10938C11.3818 6.24539 11.2711 6.38141 11.1604 6.51609C11.0098 6.41875 10.8604 6.32007 10.7111 6.22139C10.7924 6.40408 10.8751 6.5881 10.9578 6.77079C10.8471 6.90547 10.7351 7.03882 10.623 7.17217C10.7831 7.15084 10.9458 7.1295 11.1071 7.1055Z" fill="white"/>
<path d="M12.0509 6.21031C12.0669 6.409 12.0829 6.60769 12.1002 6.80638C12.1816 6.64103 12.2616 6.47434 12.3403 6.30765C12.4923 6.35833 12.6456 6.40767 12.799 6.45701C12.6963 6.30365 12.5923 6.14897 12.4883 5.99562C12.5656 5.82893 12.643 5.66091 12.7203 5.49289C12.579 5.56756 12.4363 5.63957 12.2923 5.70891C12.1856 5.55289 12.0802 5.39821 11.9736 5.24219C11.9896 5.44088 12.0056 5.63957 12.0229 5.83826C11.8749 5.9076 11.7255 5.97695 11.5762 6.04362C11.7349 6.10096 11.8922 6.15697 12.0509 6.21031Z" fill="white"/>
<g opacity="0.3">
<path d="M4.4631 3.46646C6.16865 3.46646 7.44614 3.67848 8.79964 3.90384C10.1838 4.13321 11.616 4.3719 13.5482 4.3719C14.1403 4.3719 14.7484 4.29056 15.3538 4.13054C15.7605 4.02253 16.1792 3.87717 16.602 3.69448V13.7917C16.1112 14.0238 15.6218 14.2025 15.1458 14.3251C14.6057 14.4638 14.0643 14.5345 13.5349 14.5345C11.6667 14.5345 10.2865 14.3105 8.95166 14.0945C7.63283 13.8798 6.26733 13.6584 4.4631 13.6584C3.85369 13.6584 3.24828 13.7291 2.66154 13.8691C2.24016 13.9691 1.81744 14.1065 1.40005 14.2811V4.22122C1.89478 3.98652 2.38417 3.80517 2.85623 3.68115C3.39897 3.53847 3.93903 3.46646 4.4631 3.46646ZM17.002 3.06641C15.8125 3.66648 14.6764 3.97185 13.5482 3.97185C9.8051 3.97185 7.99154 3.06641 4.4631 3.06641C3.33629 3.06641 2.18815 3.37311 1 3.97185C1 7.20426 1 11.6741 1 14.9066C2.18682 14.3078 3.33629 14.0584 4.4631 14.0584C8.04888 14.0584 9.7771 14.9346 13.5349 14.9346C14.663 14.9346 15.8125 14.6412 17.002 14.0424C17.002 10.81 17.002 6.29881 17.002 3.06641Z" fill="#212121"/>
</g>
</svg>
