<svg width="18" height="18" viewBox="0 0 18 18" fill="none" xmlns="http://www.w3.org/2000/svg">
<path d="M1 3.92852C1.75609 3.59514 2.53086 3.30444 3.34829 3.16709C4.23774 3.01774 5.14452 3.06174 6.04063 3.12575C6.04196 6.78621 6.04196 10.4453 6.0433 14.1058C4.26174 13.9724 2.61754 14.0951 1 14.9059C1 11.2468 1 7.58764 1 3.92852Z" fill="#007A5E"/>
<path d="M6.04102 3.125C6.04235 6.78546 6.04235 10.4446 6.04368 14.105C8.03193 14.2704 9.97084 14.7371 11.9618 14.8798C11.9604 11.222 11.9591 7.56289 11.9591 3.9051C9.96684 3.76641 8.0306 3.28502 6.04102 3.125ZM9.87349 10.3512C9.57479 10.1019 9.28409 9.84451 9.00139 9.57781C8.71202 9.73783 8.42131 9.89385 8.12928 10.0485C8.24529 9.72983 8.35997 9.41112 8.47332 9.09241C8.17195 8.82971 7.86524 8.57501 7.5532 8.32432C7.92925 8.37632 8.30397 8.435 8.67735 8.50301C8.78669 8.18697 8.89471 7.86959 9.00139 7.55222C9.10673 7.91093 9.21475 8.26831 9.32409 8.62569C9.69881 8.69103 10.0735 8.74704 10.4496 8.79504C10.1429 8.95906 9.83616 9.12175 9.53079 9.2871C9.64413 9.64315 9.75748 9.99653 9.87349 10.3512Z" fill="#CE1126"/>
<path d="M11.957 3.90651C12.8518 3.96252 13.7599 4.00652 14.6507 3.87184C15.4801 3.74516 16.2549 3.44779 17.0003 3.06641C17.0003 6.72553 17.0003 10.3847 17.0003 14.0424C16.2496 14.4012 15.4735 14.7012 14.6494 14.8372C13.7613 14.9839 12.8545 14.9386 11.9597 14.8812C11.9584 11.2234 11.957 7.5643 11.957 3.90651Z" fill="#FCD116"/>
<path d="M8.99982 7.55469C8.89314 7.87073 8.78513 8.18677 8.67578 8.50281C8.74646 8.51614 8.78113 8.52281 8.85047 8.53614C8.90114 8.2081 8.95048 7.88139 8.99982 7.55469Z" fill="#FCD116"/>
<path d="M8.93157 8.54948C8.98758 8.56015 9.01425 8.56548 9.06892 8.57748C9.16894 8.59748 9.21961 8.60682 9.32362 8.62549C9.21427 8.26944 9.10626 7.91207 9.00091 7.55469C8.95158 7.88139 8.90224 8.2081 8.85156 8.53481C8.88357 8.54014 8.89957 8.54281 8.93157 8.54948Z" fill="#FCD116"/>
<path d="M9.06836 8.57812C9.06836 8.66614 9.06836 8.71014 9.06836 8.79815C9.07236 8.79949 9.07503 8.79949 9.07903 8.80082C9.08836 8.78882 9.0937 8.78215 9.10303 8.77015C9.10836 8.78215 9.11103 8.78882 9.11637 8.80082C9.56042 8.80882 10.0045 8.80749 10.4485 8.79682C10.0712 8.74881 9.69644 8.69281 9.32306 8.62746C9.22038 8.60746 9.16837 8.59813 9.06836 8.57812Z" fill="#FCD116"/>
<path d="M9.11719 8.80088C9.12519 8.81954 9.13052 8.83021 9.13852 8.84888C9.16919 8.86088 9.1852 8.86622 9.2172 8.87688C9.20253 8.89289 9.19586 8.90089 9.18253 8.91689C9.27054 8.90489 9.31455 8.89822 9.40522 8.88622C9.44656 9.0209 9.48923 9.15559 9.53191 9.28894C9.83728 9.12358 10.1453 8.9609 10.4507 8.79688C10.0066 8.80754 9.56258 8.80888 9.11719 8.80088Z" fill="#FCD116"/>
<path d="M9.06836 8.80078C9.06836 8.80612 9.06836 8.80878 9.06836 8.81412C9.07236 8.81012 9.07503 8.80745 9.07903 8.80211C9.07503 8.80211 9.07369 8.80211 9.06836 8.80078Z" fill="#FCD116"/>
<path d="M9.40381 8.88672C9.31313 8.90005 9.26913 8.90539 9.18111 8.91739C9.17845 8.92139 9.17845 8.92272 9.17578 8.92672C9.20245 8.98406 9.21579 9.0134 9.24379 9.07074C9.25846 9.07874 9.26646 9.08274 9.28246 9.09208C9.27313 9.09874 9.26913 9.10275 9.26112 9.10941C9.45982 9.5268 9.66384 9.94018 9.8732 10.3522C9.75719 9.99752 9.64251 9.64415 9.53049 9.2881C9.48649 9.15609 9.44515 9.0214 9.40381 8.88672Z" fill="#FCD116"/>
<path d="M9.07903 8.80153C9.07503 8.80554 9.07236 8.8082 9.06836 8.81354C9.06836 8.81754 9.06836 8.8202 9.06836 8.8242C9.09636 8.83354 9.1097 8.83887 9.1377 8.84821C9.1297 8.82954 9.12437 8.81887 9.11637 8.8002C9.11103 8.7882 9.10836 8.78153 9.10303 8.76953C9.0937 8.78287 9.0897 8.7882 9.07903 8.80153Z" fill="#FCD116"/>
<path d="M9.26199 9.10938C9.22865 9.13738 9.21131 9.15071 9.17798 9.17872C9.23398 9.26806 9.26199 9.3134 9.31933 9.40275C9.18998 9.47342 9.12597 9.50943 9.00195 9.57877C9.28466 9.8468 9.57536 10.1028 9.87406 10.3522C9.6647 9.94015 9.46068 9.52676 9.26199 9.10938Z" fill="#FCD116"/>
<path d="M9.2453 9.07371C9.21863 9.01636 9.20396 8.98703 9.17729 8.92969C9.15195 8.96036 9.13862 8.97503 9.11328 9.0057C9.16529 9.03237 9.19196 9.0457 9.2453 9.07371Z" fill="#FCD116"/>
<path d="M9.31839 9.40372C9.26105 9.31437 9.23304 9.26903 9.17704 9.17969C9.13437 9.21703 9.11303 9.23436 9.07036 9.2717C9.07036 9.2877 9.07036 9.29704 9.07036 9.31304C9.05969 9.30504 9.05436 9.30104 9.04369 9.29437C8.74365 9.5504 8.43828 9.8011 8.12891 10.0478C8.42094 9.89444 8.71165 9.73976 9.00102 9.57974C9.12503 9.50906 9.18904 9.47439 9.31839 9.40372Z" fill="#FCD116"/>
<path d="M9.11103 9C9.0937 9.02134 9.08569 9.03067 9.06836 9.05201C9.06836 9.13868 9.06836 9.18269 9.06836 9.26937C9.11103 9.23203 9.13237 9.21469 9.17504 9.17736C9.20838 9.14935 9.22571 9.13602 9.25905 9.10801C9.26839 9.10135 9.27239 9.09735 9.28039 9.09068C9.26438 9.08268 9.25772 9.07868 9.24171 9.06934C9.19104 9.04134 9.16437 9.028 9.11103 9Z" fill="#FCD116"/>
<path d="M9.04235 9.29377C8.99968 9.2631 8.97968 9.24844 8.93701 9.21777C8.88233 9.28577 8.85433 9.32044 8.79699 9.38845C8.68898 9.28844 8.57963 9.1911 8.47028 9.09375C8.35693 9.41246 8.24359 9.72983 8.12891 10.0472C8.43561 9.79917 8.74232 9.54981 9.04235 9.29377Z" fill="#FCD116"/>
<path d="M9.06969 9.05358C9.08703 9.03224 9.09503 9.02291 9.11237 9.00157C9.1377 8.9709 9.15104 8.95624 9.17637 8.92557C9.17904 8.92156 9.17904 8.92023 9.18171 8.91623C9.19638 8.90023 9.20304 8.89223 9.21638 8.87623C9.18437 8.86422 9.16971 8.85889 9.1377 8.84822C9.1097 8.83889 9.09636 8.83355 9.06836 8.82422C9.06836 8.91623 9.06969 8.96157 9.06969 9.05358Z" fill="#FCD116"/>
<path d="M8.7976 9.39092C8.85361 9.32292 8.88161 9.28824 8.93762 9.22024C8.48823 8.90286 8.02417 8.60949 7.55078 8.32812C7.86282 8.57749 8.16953 8.83352 8.4709 9.09622C8.58024 9.19223 8.68826 9.29091 8.7976 9.39092Z" fill="#FCD116"/>
<path d="M8.93567 9.219C8.97834 9.24967 8.99834 9.26434 9.04101 9.29501C9.05168 9.30301 9.05702 9.30701 9.06768 9.31368C9.06768 9.29767 9.06768 9.28834 9.06768 9.27234C9.06768 9.18566 9.06768 9.14165 9.06768 9.05498C9.06768 8.96297 9.06768 8.91629 9.06768 8.82428C9.06768 8.82028 9.06768 8.81761 9.06768 8.81361C9.06768 8.80828 9.06768 8.80561 9.06768 8.80028C9.06768 8.71227 9.06768 8.66826 9.06768 8.58025C9.01301 8.56958 8.98501 8.56425 8.93033 8.55225C8.89833 8.54558 8.88233 8.54291 8.85032 8.53624C8.78098 8.52291 8.74631 8.51624 8.67564 8.50291C8.30092 8.4349 7.92621 8.37623 7.54883 8.32422C8.02222 8.60692 8.48628 8.90162 8.93567 9.219Z" fill="#FCD116"/>
<g opacity="0.3">
<path d="M4.4631 3.46646C6.16865 3.46646 7.44614 3.67848 8.79964 3.90384C10.1838 4.13321 11.616 4.3719 13.5482 4.3719C14.1403 4.3719 14.7484 4.29056 15.3538 4.13054C15.7605 4.02253 16.1792 3.87717 16.602 3.69448V13.7917C16.1112 14.0238 15.6218 14.2025 15.1458 14.3251C14.6057 14.4638 14.0643 14.5345 13.5349 14.5345C11.6667 14.5345 10.2865 14.3105 8.95166 14.0945C7.63283 13.8798 6.26733 13.6584 4.4631 13.6584C3.85369 13.6584 3.24828 13.7291 2.66154 13.8691C2.24016 13.9691 1.81744 14.1065 1.40005 14.2811V4.22122C1.89478 3.98652 2.38417 3.80517 2.85623 3.68115C3.39897 3.53847 3.93903 3.46646 4.4631 3.46646ZM17.002 3.06641C15.8125 3.66648 14.6764 3.97185 13.5482 3.97185C9.8051 3.97185 7.99154 3.06641 4.4631 3.06641C3.33629 3.06641 2.18815 3.37311 1 3.97185C1 7.20426 1 11.6741 1 14.9066C2.18682 14.3078 3.33629 14.0584 4.4631 14.0584C8.04888 14.0584 9.7771 14.9346 13.5349 14.9346C14.663 14.9346 15.8125 14.6412 17.002 14.0424C17.002 10.81 17.002 6.29881 17.002 3.06641Z" fill="#212121"/>
</g>
</svg>
