<svg width="18" height="18" viewBox="0 0 18 18" fill="none" xmlns="http://www.w3.org/2000/svg">
<path d="M11.9746 3.91061C12.8587 3.97195 13.7575 4.01862 14.6363 3.87327C15.467 3.73592 16.2445 3.42121 17.0019 3.0625C17.0019 6.72162 17.0019 10.3794 17.0019 14.0385C16.2418 14.3919 15.463 14.7053 14.6323 14.8386C13.7562 14.98 12.8601 14.9346 11.9786 14.876C11.9773 11.2209 11.9759 7.56573 11.9746 3.91061Z" fill="#ED2939"/>
<path d="M6.04397 3.12891C8.03355 3.30093 9.98179 3.75565 11.9754 3.91034C11.9767 7.56546 11.978 11.2206 11.9794 14.8757C9.98446 14.7277 8.03488 14.2796 6.04397 14.1049C6.04264 10.4458 6.04264 6.78803 6.04397 3.12891Z" fill="white"/>
<path d="M1 3.96714C1.76143 3.61243 2.54019 3.29506 3.3723 3.15771C4.25374 3.01102 5.15519 3.06036 6.0433 3.1297C6.0433 6.78883 6.0433 10.448 6.0433 14.1057C5.14452 14.0351 4.23774 13.9897 3.34429 14.1404C2.52686 14.2778 1.75343 14.5658 1 14.9018C1 11.2574 1 7.6116 1 3.96714Z" fill="#002395"/>
<g opacity="0.3">
<path d="M4.4631 3.46255C6.16865 3.46255 7.44614 3.67458 8.79964 3.89994C10.1838 4.1293 11.616 4.368 13.5482 4.368C14.1403 4.368 14.7484 4.28665 15.3538 4.12663C15.7605 4.01862 16.1792 3.87327 16.602 3.69058V13.7878C16.1112 14.0199 15.6218 14.1986 15.1458 14.3212C14.6057 14.4599 14.0643 14.5306 13.5349 14.5306C11.6667 14.5306 10.2865 14.3066 8.95166 14.0905C7.63283 13.8759 6.26733 13.6545 4.4631 13.6545C3.85369 13.6545 3.24828 13.7252 2.66154 13.8652C2.24016 13.9652 1.81744 14.1025 1.40005 14.2772V4.21731C1.89478 3.98262 2.38417 3.80126 2.85623 3.67724C3.39897 3.53456 3.93903 3.46255 4.4631 3.46255ZM17.002 3.0625C15.8125 3.66258 14.6764 3.96795 13.5482 3.96795C9.8051 3.96795 7.99154 3.0625 4.4631 3.0625C3.33629 3.0625 2.18815 3.3692 1 3.96795C1 7.20035 1 11.6702 1 14.9026C2.18682 14.3039 3.33629 14.0545 4.4631 14.0545C8.04888 14.0545 9.7771 14.9307 13.5349 14.9307C14.663 14.9307 15.8125 14.6373 17.002 14.0385C17.002 10.8061 17.002 6.2949 17.002 3.0625Z" fill="#212121"/>
</g>
</svg>
