<svg width="18" height="18" viewBox="0 0 18 18" fill="none" xmlns="http://www.w3.org/2000/svg">
<path d="M1 11.2336C2.29883 10.6882 3.56165 10.3521 4.97916 10.3881C6.33 10.4228 7.6715 10.6148 9.001 10.8482C10.3252 11.0802 11.6733 11.2376 13.0175 11.2709C14.447 11.3056 15.7138 11.0002 17.002 10.3828C17.002 11.603 17.002 12.8218 17.002 14.0419C15.7125 14.658 14.4483 14.9634 13.0175 14.93C11.672 14.8994 10.3238 14.75 9.001 14.5073C7.67283 14.2633 6.33 14.0779 4.97783 14.0459C3.56032 14.0139 2.29216 14.318 1 14.8914C1 13.6726 1 12.4524 1 11.2336Z" fill="#3A75C4"/>
<path d="M1 7.57343C2.30683 7.0547 3.56299 6.68932 4.9805 6.72799C6.33 6.76533 7.6715 6.96535 9.001 7.18805C10.3278 7.40941 11.672 7.57476 13.0175 7.60943C14.4443 7.64677 15.7165 7.34007 17.002 6.72266C17.002 7.94281 17.002 9.16163 17.002 10.3818C15.7152 10.9992 14.447 11.3046 13.0175 11.2699C11.6733 11.2366 10.3252 11.0792 9.001 10.8472C7.6715 10.6138 6.33 10.4218 4.97916 10.3871C3.56165 10.3511 2.29883 10.6872 1 11.2326C1 10.0124 1 8.79358 1 7.57343Z" fill="#FCD116"/>
<path d="M1 3.91718C2.26949 3.44112 3.49631 3.03974 4.86715 3.06907C6.25266 3.09974 7.6315 3.31444 8.99833 3.53046C10.3398 3.74249 11.696 3.91985 13.0562 3.95452C14.467 3.98919 15.7325 3.67715 17.002 3.06641C17.002 4.28656 17.002 5.50538 17.002 6.72553C15.7165 7.34294 14.4443 7.64965 13.0175 7.61231C11.672 7.57764 10.3265 7.41228 9.001 7.19092C7.6715 6.96823 6.33 6.7682 4.9805 6.73086C3.56299 6.69086 2.30683 7.05757 1 7.57497C1 6.35615 1 5.136 1 3.91718Z" fill="#009E60"/>
<path opacity="0.3" d="M4.4631 3.46646C6.16865 3.46646 7.44614 3.67848 8.79964 3.90384C10.1838 4.13321 11.616 4.3719 13.5482 4.3719C14.1403 4.3719 14.7484 4.29056 15.3538 4.13054C15.7605 4.02253 16.1792 3.87717 16.602 3.69448V13.7917C16.1112 14.0238 15.6218 14.2025 15.1458 14.3251C14.6057 14.4638 14.0643 14.5345 13.5349 14.5345C11.6667 14.5345 10.2865 14.3105 8.95166 14.0945C7.63283 13.8798 6.26733 13.6584 4.4631 13.6584C3.85369 13.6584 3.24828 13.7291 2.66154 13.8691C2.24016 13.9691 1.81744 14.1065 1.40005 14.2811V4.22122C1.89478 3.98652 2.38417 3.80517 2.85623 3.68115C3.39897 3.53847 3.93903 3.46646 4.4631 3.46646ZM17.002 3.06641C15.8125 3.66648 14.6764 3.97185 13.5482 3.97185C9.8051 3.97185 7.99154 3.06641 4.4631 3.06641C3.33629 3.06641 2.18815 3.37311 1 3.97185C1 7.20426 1 11.6741 1 14.9066C2.18682 14.3078 3.33629 14.0584 4.4631 14.0584C8.04888 14.0584 9.7771 14.9346 13.5349 14.9346C14.663 14.9346 15.8125 14.6412 17.002 14.0424C17.002 10.81 17.002 6.29881 17.002 3.06641Z" fill="#212121"/>
</svg>
