<svg width="18" height="18" viewBox="0 0 18 18" fill="none" xmlns="http://www.w3.org/2000/svg">
<path d="M1 11.2628C2.26949 10.6054 3.56299 10.3694 4.9845 10.4081C6.33133 10.4454 7.6755 10.6241 9.001 10.8534C10.3265 11.0828 11.672 11.2468 13.0188 11.2788C14.435 11.3135 15.7365 11.0308 17.002 10.3867C17.002 11.6055 17.002 12.8257 17.002 14.0445C15.7432 14.6979 14.431 14.966 13.0188 14.9326C11.672 14.9006 10.3278 14.7393 9.001 14.5099C7.67417 14.2819 6.33133 14.1059 4.9845 14.0698C3.56032 14.0338 2.26816 14.2339 1 14.91C1 13.6951 1 12.479 1 11.2628Z" fill="#ED1C24"/>
<path d="M5.61124 6.95859C5.57657 7.61334 5.22986 8.30276 4.60045 8.56679C3.97104 8.30409 3.74034 7.592 3.69367 6.96793C3.68967 6.89192 3.68834 6.85458 3.68434 6.77857C2.73088 6.89058 1.85611 7.18929 1 7.62267C1 8.83616 1 10.0483 1 11.2618C2.26949 10.6044 3.56299 10.3684 4.9845 10.407C6.33133 10.4444 7.6755 10.623 9.001 10.8524C10.3265 11.0818 11.672 11.2458 13.0188 11.2778C14.435 11.3125 15.7365 11.0298 17.002 10.3857C17.002 9.16553 17.002 7.94672 17.002 6.72656C16.1646 7.14528 15.2898 7.45999 14.3563 7.57467C13.4949 7.68002 12.6161 7.62534 11.7547 7.55333C9.69709 7.38264 7.6835 6.91059 5.62191 6.7679C5.61658 6.84391 5.61524 6.88258 5.61124 6.95859Z" fill="#005DA4"/>
<path d="M1 3.97709C1 5.19324 1 6.40806 1 7.62421C1.85611 7.19216 2.73088 6.89346 3.68567 6.78011C3.663 6.28005 3.639 5.77998 3.61633 5.27859C3.61766 5.27725 3.62033 5.27592 3.62166 5.27459C3.64033 5.25992 3.659 5.24392 3.67767 5.22925C3.679 5.22792 3.68167 5.22658 3.683 5.22525C4.31375 4.78653 4.9725 4.85053 5.62458 5.21191C5.62591 5.21325 5.62858 5.21458 5.62991 5.21591C5.65392 5.23058 5.67658 5.24525 5.69792 5.25859C5.69925 5.25992 5.70192 5.26125 5.70325 5.26259C5.67525 5.76532 5.64858 6.26671 5.62191 6.76944C7.6835 6.91213 9.69709 7.38418 11.7547 7.55487C12.6161 7.62688 13.4962 7.68155 14.3563 7.57621C15.2898 7.46153 16.1632 7.14682 17.002 6.7281C17.002 5.50928 17.002 4.28913 17.002 3.07031C15.7245 3.69439 14.4417 4.0091 13.0188 3.97309C11.672 3.93842 10.3265 3.77173 9.001 3.53704C7.6755 3.30367 6.33133 3.11565 4.9845 3.07565C3.56299 3.03431 2.27349 3.35435 1 3.97709Z" fill="white"/>
<path d="M4.60069 8.57004C5.2301 8.30734 5.57548 7.61525 5.61148 6.96184C5.61548 6.88583 5.61815 6.84849 5.62215 6.77248C5.65016 6.26975 5.67816 5.76835 5.70616 5.26562C5.67416 5.83103 5.64349 6.39777 5.61282 6.96317C5.57548 7.61659 5.22877 8.30734 4.60069 8.57004C3.97128 8.30734 3.74058 7.59525 3.69391 6.97117C3.66724 6.4071 3.6419 5.84303 3.61523 5.27896C3.6379 5.78036 3.66191 6.28042 3.68458 6.78181C3.68858 6.85782 3.68991 6.89516 3.69391 6.97117C3.74058 7.59525 3.97128 8.30734 4.60069 8.57004Z" fill="#005DA4"/>
<path d="M3.62109 5.27581C3.6411 5.26114 3.65843 5.24514 3.6771 5.23047C3.65843 5.2438 3.63976 5.25847 3.62109 5.27581Z" fill="#005DA4"/>
<path d="M5.62891 5.21484C5.65158 5.22951 5.67558 5.24418 5.69691 5.25752C5.67558 5.24151 5.65158 5.22818 5.62891 5.21484Z" fill="#005DA4"/>
<path d="M4.22054 7.67917C4.29788 7.61249 4.39256 7.60983 4.47257 7.6725C4.55125 7.73518 4.64993 7.73518 4.73127 7.6725C4.81261 7.60983 4.91529 7.61116 4.9993 7.67784C5.07398 7.73651 5.16199 7.74318 5.24067 7.70851C5.26467 7.6605 5.28601 7.60983 5.30734 7.55915C5.22066 7.64183 5.09932 7.6525 5.00197 7.57516C4.91796 7.50848 4.81528 7.50581 4.73394 7.56982C4.65259 7.63383 4.55391 7.6325 4.47524 7.56982C4.39656 7.50715 4.30055 7.50848 4.22321 7.57649C4.13253 7.65517 4.02585 7.6445 3.95117 7.56315C3.96851 7.61516 3.98851 7.6645 4.01118 7.71117C4.07519 7.74584 4.15253 7.73651 4.22054 7.67917Z" fill="white"/>
<path d="M4.22085 7.47402C4.29819 7.40734 4.39287 7.40467 4.47288 7.46735C4.55289 7.53002 4.65023 7.53002 4.73158 7.46735C4.81292 7.40467 4.9156 7.40601 4.99961 7.47268C5.13163 7.57803 5.30632 7.51002 5.37566 7.36734C5.39299 7.30733 5.40633 7.24599 5.41833 7.18198C5.27831 6.93928 5.1383 6.69659 4.99961 6.45256C4.93427 6.56457 4.90227 6.62058 4.83826 6.73259C4.75825 6.51923 4.67957 6.30454 4.6009 6.08984C4.52355 6.3032 4.44621 6.5179 4.3702 6.73259C4.31019 6.62058 4.27952 6.56457 4.22085 6.45389C4.09683 6.69659 3.97548 6.94195 3.85547 7.18731C3.8648 7.24999 3.87814 7.31133 3.89147 7.37134C3.94481 7.50735 4.10217 7.58203 4.22085 7.47402Z" fill="white"/>
<path d="M4.60043 8.34902C4.83512 8.24101 5.03248 8.04365 5.16983 7.82762C5.11249 7.83429 5.05248 7.81829 4.99914 7.77828C4.91513 7.71161 4.81245 7.70894 4.73111 7.77295C4.64977 7.83696 4.55109 7.83562 4.47241 7.77295C4.39373 7.71027 4.29772 7.71161 4.22038 7.77961C4.17237 7.82229 4.11903 7.83696 4.06836 7.83029C4.18704 8.04898 4.37373 8.24234 4.60043 8.34902Z" fill="white"/>
<path d="M5.62126 5.21555C4.96918 4.85417 4.31043 4.79016 3.67969 5.22888C3.70769 5.80495 3.73569 6.38236 3.7637 6.95843C3.7757 7.18112 3.8117 7.40915 3.88905 7.61985C3.88905 7.61851 3.88905 7.61851 3.88905 7.61851C3.90772 7.67052 3.92772 7.71986 3.94905 7.76786C4.07974 8.06257 4.30243 8.32793 4.60247 8.46128C4.92251 8.3186 5.13987 8.06123 5.31189 7.76386C5.33723 7.71586 5.36123 7.66518 5.38123 7.61318C5.38123 7.61051 5.38123 7.60918 5.38123 7.60784C5.46391 7.39982 5.51725 7.17579 5.52658 6.95176C5.55726 6.37436 5.58926 5.79428 5.62126 5.21555ZM4.8105 5.13687C4.83717 5.14487 4.8505 5.1502 4.87717 5.1582C4.88517 5.12353 4.88917 5.1062 4.89851 5.07019C4.90651 5.1062 4.91051 5.12353 4.91984 5.1582C4.94651 5.1502 4.95985 5.14754 4.98652 5.13954C4.96785 5.16487 4.95851 5.17821 4.93851 5.20354C4.95718 5.23021 4.96651 5.24355 4.98652 5.27022C4.95985 5.26088 4.94651 5.25688 4.91984 5.24888C4.91184 5.28355 4.90784 5.30089 4.89851 5.33689C4.89051 5.30089 4.88651 5.28355 4.87717 5.24888C4.8505 5.25688 4.83717 5.25955 4.8105 5.26755C4.82916 5.24088 4.8385 5.22888 4.85717 5.20221C4.8385 5.17687 4.82916 5.16354 4.8105 5.13687ZM4.51713 5.66894C4.54246 5.67694 4.5558 5.68094 4.58113 5.68894C4.58913 5.65427 4.59314 5.6356 4.60114 5.60093C4.60914 5.6356 4.61314 5.65427 4.62114 5.68894C4.64648 5.68094 4.65981 5.67694 4.68515 5.66894C4.66648 5.69561 4.65714 5.70894 4.63981 5.73428C4.65848 5.76095 4.66781 5.77428 4.68515 5.80095C4.65981 5.79295 4.64648 5.78895 4.62114 5.78095C4.61314 5.81562 4.60914 5.83429 4.60114 5.86896C4.59314 5.83429 4.58913 5.81562 4.58113 5.78095C4.5558 5.78895 4.54246 5.79295 4.51713 5.80095C4.53446 5.77428 4.5438 5.76095 4.56246 5.73428C4.54513 5.70894 4.53579 5.69561 4.51713 5.66894ZM4.23309 5.14354C4.25709 5.1502 4.27043 5.1542 4.29443 5.16087C4.30243 5.12487 4.30643 5.10753 4.31443 5.07286C4.32243 5.10753 4.32644 5.12487 4.33444 5.15954C4.35977 5.1502 4.37177 5.1462 4.39711 5.1382C4.37978 5.16487 4.37044 5.17821 4.35311 5.20488C4.37044 5.23021 4.37978 5.24355 4.39711 5.27022C4.37177 5.26222 4.35977 5.25955 4.33444 5.25155C4.32644 5.28755 4.32243 5.30489 4.31443 5.33956C4.30643 5.30489 4.30243 5.28755 4.29443 5.25288C4.26909 5.26222 4.25709 5.26622 4.23309 5.27555C4.25043 5.24888 4.25976 5.23555 4.2771 5.20754C4.25976 5.18221 4.25043 5.16887 4.23309 5.14354ZM3.88638 7.37448C3.88638 7.37048 3.88638 7.36781 3.88638 7.36381C3.88638 7.36515 3.88638 7.36515 3.88771 7.36648C3.88771 7.36915 3.88638 7.37048 3.88638 7.37448ZM4.00639 7.71052C3.98506 7.66252 3.96639 7.61451 3.94772 7.56517C3.94372 7.56117 3.94105 7.55717 3.93705 7.55317C3.94105 7.55584 3.94505 7.55984 3.94905 7.56384C4.02373 7.64652 4.13174 7.65585 4.22109 7.57717C4.29843 7.5105 4.39311 7.50783 4.47312 7.57051C4.5518 7.63318 4.65048 7.63318 4.73182 7.57051C4.81316 7.50783 4.91584 7.50917 4.99985 7.57584C5.09986 7.65452 5.22121 7.64251 5.30922 7.55984C5.31056 7.5585 5.31189 7.55717 5.31189 7.55717C5.31189 7.55717 5.30922 7.55984 5.30789 7.56117C5.28789 7.61318 5.26522 7.66385 5.23855 7.70919C5.16254 7.74253 5.07453 7.73586 4.99985 7.67719C4.91584 7.61051 4.81316 7.60784 4.73182 7.67185C4.65048 7.73453 4.5518 7.73453 4.47312 7.67185C4.39444 7.60918 4.29843 7.61051 4.22109 7.67852C4.15308 7.73719 4.07574 7.74519 4.00639 7.71052C4.00773 7.71052 4.00639 7.71052 4.00639 7.71052ZM4.60114 8.35327C4.37577 8.24526 4.18775 8.0519 4.06907 7.83321C4.11974 7.83987 4.17442 7.82254 4.22109 7.78253C4.2971 7.71719 4.39311 7.71319 4.47312 7.77587C4.5518 7.83854 4.65048 7.83854 4.73182 7.77587C4.81316 7.71319 4.91584 7.71452 4.99985 7.7812C5.05319 7.82254 5.1132 7.83854 5.17054 7.83054C5.03319 8.0479 4.83717 8.24792 4.60114 8.35327ZM5.37457 7.36781C5.3759 7.36381 5.37723 7.36248 5.37857 7.35848V7.35981C5.37723 7.36115 5.37723 7.36381 5.3759 7.36515C5.30656 7.50783 5.1332 7.57584 4.99985 7.47049C4.91584 7.40382 4.81316 7.40115 4.73182 7.46516C4.65048 7.52783 4.5518 7.52783 4.47312 7.46516C4.39444 7.40248 4.2971 7.40382 4.22109 7.47183C4.10241 7.57717 3.94372 7.50516 3.89171 7.36915C3.89038 7.36515 3.88905 7.36381 3.88771 7.35981C3.87438 7.30381 3.86371 7.24647 3.85438 7.18646C3.97439 6.94109 4.09574 6.69706 4.21975 6.45303C4.27976 6.56371 4.3091 6.61972 4.36911 6.73173C4.44512 6.51704 4.52113 6.30235 4.5998 6.08899C4.67848 6.30368 4.75716 6.51704 4.83717 6.73173C4.90117 6.61972 4.93318 6.56371 4.99852 6.4517C5.1372 6.69573 5.27589 6.93843 5.41724 7.18112C5.40524 7.24647 5.39057 7.30781 5.37457 7.36781Z" fill="#005DA4"/>
<path d="M4.57963 5.77635C4.58763 5.81102 4.59163 5.82969 4.59964 5.86436C4.60764 5.82969 4.61164 5.81102 4.61964 5.77635C4.64497 5.78568 4.65831 5.78968 4.68365 5.79901C4.66498 5.77234 4.65564 5.75768 4.63831 5.73101C4.65698 5.70434 4.66631 5.691 4.68365 5.66566C4.65831 5.67367 4.64497 5.67767 4.61964 5.68567C4.61164 5.651 4.60764 5.63233 4.59964 5.59766C4.59163 5.63233 4.58763 5.651 4.57963 5.68567C4.5543 5.67767 4.54096 5.67367 4.51562 5.66566C4.53296 5.69233 4.54229 5.70567 4.56096 5.73101C4.54229 5.75768 4.53429 5.77234 4.51562 5.79901C4.54096 5.78968 4.5543 5.78435 4.57963 5.77635Z" fill="#FFDD00"/>
<path d="M4.29376 5.25167C4.30176 5.28634 4.30576 5.30368 4.31377 5.33835C4.32043 5.30234 4.32443 5.28501 4.33243 5.25033C4.35777 5.25834 4.37111 5.26234 4.39644 5.27034C4.37911 5.24367 4.36977 5.23033 4.35244 5.20366C4.36977 5.17699 4.37911 5.16366 4.39644 5.13699C4.37111 5.14499 4.35777 5.15032 4.33243 5.15832C4.32577 5.12365 4.32177 5.10632 4.31377 5.07031C4.30576 5.10632 4.30176 5.12365 4.29376 5.15832C4.26843 5.15166 4.25642 5.14766 4.23242 5.14099C4.24976 5.16632 4.25909 5.17966 4.27643 5.205C4.25909 5.233 4.24976 5.24633 4.23242 5.27434C4.25642 5.26634 4.26843 5.261 4.29376 5.25167Z" fill="#FFDD00"/>
<path d="M4.8766 5.249C4.8846 5.28501 4.8886 5.30234 4.8966 5.33701C4.90461 5.30234 4.90861 5.28501 4.91794 5.249C4.94461 5.25834 4.95795 5.26367 4.98462 5.273C4.96595 5.245 4.95661 5.23167 4.93661 5.20366C4.95528 5.17833 4.96461 5.16499 4.98462 5.13965C4.95795 5.14632 4.94461 5.15032 4.91794 5.15832C4.90994 5.12232 4.90594 5.10498 4.8966 5.07031C4.8886 5.10498 4.8846 5.12232 4.8766 5.15832C4.84993 5.15032 4.83526 5.14499 4.80859 5.13699C4.82726 5.16366 4.8366 5.17699 4.85527 5.20366C4.8366 5.23033 4.82726 5.24367 4.80859 5.27034C4.8366 5.261 4.84993 5.257 4.8766 5.249Z" fill="#FFDD00"/>
<path d="M3.69382 6.9724C3.74049 7.59781 3.97118 8.30723 4.6006 8.57126C5.23001 8.30856 5.57538 7.61648 5.61139 6.96306C5.64206 6.39766 5.67406 5.83092 5.70473 5.26552C5.7034 5.26418 5.70073 5.26285 5.6994 5.26152C5.6754 5.24685 5.65273 5.23218 5.63139 5.21884C5.63006 5.21751 5.62739 5.21618 5.62606 5.21484C5.59405 5.79358 5.56338 6.37232 5.53138 6.95239C5.52071 7.17909 5.46871 7.40578 5.38336 7.61514C5.36203 7.66715 5.33802 7.71782 5.31402 7.76583C5.142 8.06187 4.92464 8.32057 4.6046 8.46325C4.30456 8.3299 4.08453 8.06453 3.95118 7.7685C3.92985 7.72049 3.90851 7.67115 3.89117 7.61914C3.81383 7.40845 3.77783 7.18176 3.76583 6.95773C3.73916 6.38032 3.71249 5.80292 3.68582 5.22685C3.68448 5.22818 3.68182 5.22951 3.68048 5.23085C3.66181 5.24551 3.64314 5.26018 3.62447 5.27618C3.62314 5.27752 3.62047 5.27885 3.61914 5.28019C3.64314 5.84292 3.66848 6.40699 3.69382 6.9724Z" fill="#ED1C24"/>
<g opacity="0.3">
<path d="M4.4631 3.47036C6.16865 3.47036 7.44614 3.68239 8.79964 3.90775C10.1838 4.13711 11.616 4.37581 13.5482 4.37581C14.1403 4.37581 14.7484 4.29447 15.3538 4.13445C15.7605 4.02643 16.1792 3.88108 16.602 3.69839V13.7957C16.1112 14.0277 15.6218 14.2064 15.1458 14.3291C14.6057 14.4677 14.0643 14.5384 13.5349 14.5384C11.6667 14.5384 10.2865 14.3144 8.95166 14.0984C7.63283 13.8837 6.26733 13.6623 4.4631 13.6623C3.85369 13.6623 3.24828 13.733 2.66154 13.873C2.24016 13.973 1.81744 14.1104 1.40005 14.285V4.22512C1.89478 3.99043 2.38417 3.80907 2.85623 3.68506C3.39897 3.54237 3.93903 3.47036 4.4631 3.47036ZM17.002 3.07031C15.8125 3.67039 14.6764 3.97576 13.5482 3.97576C9.8051 3.97576 7.99154 3.07031 4.4631 3.07031C3.33629 3.07031 2.18815 3.37702 1 3.97576C1 7.20816 1 11.6781 1 14.9105C2.18682 14.3117 3.33629 14.0624 4.4631 14.0624C8.04888 14.0624 9.7771 14.9385 13.5349 14.9385C14.663 14.9385 15.8125 14.6451 17.002 14.0464C17.002 10.8139 17.002 6.30272 17.002 3.07031Z" fill="#212121"/>
</g>
</svg>
