<svg width="18" height="18" viewBox="0 0 18 18" fill="none" xmlns="http://www.w3.org/2000/svg">
<path d="M1 14.9039C2.26549 14.2492 3.56832 14.0238 4.9845 14.0638C6.33133 14.1012 7.67417 14.2839 9.001 14.5106C10.3265 14.7359 11.672 14.8946 13.0175 14.9279C14.431 14.9626 15.7392 14.6826 17.002 14.0385C17.002 12.941 17.002 11.8436 17.002 10.7461C16.1099 11.2088 15.1644 11.5182 14.1603 11.6089C13.2069 11.6955 12.2361 11.6182 11.2866 11.5262C9.10101 11.3128 6.96341 10.8048 4.75914 10.7634C3.26695 11.9209 2.10547 13.3878 1 14.9039Z" fill="#078930"/>
<path d="M5.49852 6.94211C9.26833 7.18348 13.4275 8.80101 17.0026 6.90744C17.0026 6.72475 17.0026 6.54206 17.0026 6.35938C16.1132 6.83143 15.1677 7.13814 14.1623 7.22882C13.2075 7.31416 12.2367 7.23682 11.2859 7.14214C9.10164 6.92478 6.96404 6.40871 4.75977 6.36471C5.00513 6.55807 5.25183 6.75009 5.49852 6.94211Z" fill="white"/>
<path d="M4.75977 10.7646C6.96404 10.806 9.10164 11.3154 11.2872 11.5274C12.2367 11.6194 13.2088 11.6967 14.1609 11.6101C15.1651 11.5194 16.1092 11.21 17.0026 10.7473C17.0026 10.5646 17.0026 10.3819 17.0026 10.1992C16.1545 10.6406 15.2571 10.9446 14.3036 11.0487C13.4355 11.1433 12.5527 11.0887 11.686 11.0153C9.61104 10.8406 7.57878 10.3726 5.49986 10.2419C5.24783 10.4099 5.00113 10.5833 4.75977 10.7646Z" fill="white"/>
<path d="M1 3.97185C2.39217 4.54792 3.58432 5.4347 4.75914 6.36415C6.96341 6.40816 9.09968 6.92289 11.2853 7.14158C12.2361 7.23626 13.2082 7.3136 14.1616 7.22826C15.1671 7.13758 16.1126 6.83221 17.002 6.35882C17.002 5.26135 17.002 4.16388 17.002 3.06641C14.5364 4.39591 11.6533 3.99719 9.001 3.53313C7.67417 3.30244 6.33133 3.11175 4.9845 3.07174C3.57232 3.0304 2.25882 3.32777 1 3.97185Z" fill="black"/>
<path d="M7.86634 8.84116C7.06758 9.29322 6.26748 9.73994 5.49938 10.2413C7.57964 10.372 9.61189 10.8401 11.6855 11.0148C12.5523 11.0881 13.435 11.1428 14.3031 11.0481C15.2566 10.9441 16.154 10.64 17.0022 10.1987C17.0022 9.10119 17.0022 8.00372 17.0022 6.90625C13.427 8.79982 9.26785 7.18228 5.49805 6.94092C6.29681 7.56367 7.09425 8.18641 7.86634 8.84116Z" fill="#DA121A"/>
<path d="M5.49923 10.2428C6.26732 9.74004 7.06743 9.29332 7.86619 8.84126C7.09543 8.18652 6.298 7.56377 5.49923 6.94236C5.25253 6.75034 5.00583 6.55831 4.76047 6.36496C3.58432 5.43551 2.39217 4.54873 1 3.97266C1 5.06746 1 6.16093 1 7.25573C1 7.43842 1 7.61978 1 7.80247C1 8.8946 1 9.98541 1 11.0775C1 11.2602 1 11.4416 1 11.6243C1 12.7191 1 13.8139 1 14.9074C2.10547 13.3898 3.26695 11.923 4.75914 10.7655C5.0005 10.5841 5.2472 10.4108 5.49923 10.2428ZM1.90411 9.02795C2.15348 8.80793 2.40818 8.59457 2.67088 8.39054C2.66954 7.96649 2.66821 7.54377 2.66554 7.11972C2.82956 7.42642 2.99225 7.73446 3.1536 8.0425C3.41764 7.86648 3.687 7.70112 3.96437 7.54777C3.79102 7.90648 3.62299 8.26786 3.45897 8.63057C3.62833 8.95861 3.79635 9.28532 3.9657 9.61336C3.699 9.50535 3.42964 9.404 3.15627 9.31332C2.99358 9.68804 2.8349 10.0654 2.67754 10.4428C2.67621 10.0214 2.67488 9.59869 2.67221 9.17731C2.42018 9.1133 2.16281 9.06129 1.90411 9.02795Z" fill="#0F47AF"/>
<path d="M2.67773 10.4443C2.83375 10.0669 2.99377 9.68951 3.15645 9.3148C3.42982 9.40547 3.69785 9.50549 3.96589 9.6135C3.79653 9.28546 3.62851 8.95875 3.45916 8.63071C3.62318 8.268 3.79253 7.90662 3.96455 7.54791C3.68719 7.70126 3.41782 7.86528 3.15379 8.03997C2.99243 7.73193 2.82975 7.42389 2.66573 7.11719C2.66706 7.54124 2.66839 7.96396 2.67106 8.38801C2.40836 8.59204 2.15366 8.80406 1.9043 9.02543C2.16433 9.05876 2.42169 9.11077 2.67373 9.17611C2.67373 9.5975 2.67639 10.0216 2.67773 10.4443Z" fill="#FCDD09"/>
<g opacity="0.3">
<path d="M4.4631 3.46646C6.16865 3.46646 7.44614 3.67848 8.79964 3.90384C10.1838 4.13321 11.616 4.3719 13.5482 4.3719C14.1403 4.3719 14.7484 4.29056 15.3538 4.13054C15.7605 4.02253 16.1792 3.87717 16.602 3.69448V13.7917C16.1112 14.0238 15.6218 14.2025 15.1458 14.3251C14.6057 14.4638 14.0643 14.5345 13.5349 14.5345C11.6667 14.5345 10.2865 14.3105 8.95166 14.0945C7.63283 13.8798 6.26733 13.6584 4.4631 13.6584C3.85369 13.6584 3.24828 13.7291 2.66154 13.8691C2.24016 13.9691 1.81744 14.1065 1.40005 14.2811V4.22122C1.89478 3.98652 2.38417 3.80517 2.85623 3.68115C3.39897 3.53847 3.93903 3.46646 4.4631 3.46646ZM17.002 3.06641C15.8125 3.66648 14.6764 3.97185 13.5482 3.97185C9.8051 3.97185 7.99154 3.06641 4.4631 3.06641C3.33629 3.06641 2.18815 3.37311 1 3.97185C1 7.20426 1 11.6741 1 14.9066C2.18682 14.3078 3.33629 14.0584 4.4631 14.0584C8.04888 14.0584 9.7771 14.9346 13.5349 14.9346C14.663 14.9346 15.8125 14.6412 17.002 14.0424C17.002 10.81 17.002 6.29881 17.002 3.06641Z" fill="#212121"/>
</g>
</svg>
