<svg width="18" height="18" viewBox="0 0 18 18" fill="none" xmlns="http://www.w3.org/2000/svg">
<path d="M1 3.97224C1 7.6167 1 11.2612 1 14.9069C2.26816 14.2655 3.56832 14.0282 4.98316 14.0642C6.33133 14.0988 7.67417 14.2735 9.001 14.5082C10.3252 14.7429 11.672 14.8976 13.0175 14.9309C14.435 14.9656 15.7392 14.7002 17.002 14.0428C17.002 10.3837 17.002 6.72592 17.002 3.06679C15.7245 3.72421 14.451 4.00558 13.0175 3.96824C11.672 3.93357 10.3252 3.76955 9.001 3.53218C7.6755 3.29482 6.33133 3.1108 4.9845 3.07213C4.34308 3.05346 3.69767 3.07613 3.06693 3.20548C2.3415 3.35616 1.66275 3.64687 1 3.97224ZM11.4093 10.1543C11.0546 10.017 10.7012 9.87564 10.3518 9.72763C10.1411 9.96499 9.93045 10.205 9.72242 10.445C9.72242 10.113 9.72242 9.77963 9.72242 9.44759C9.61708 9.39959 9.56507 9.37425 9.46239 9.32624C9.40105 9.75696 9.2397 10.165 8.91966 10.4704C8.35559 11.2705 7.32612 11.4812 6.41134 11.4065C4.89115 11.2838 3.65367 10.1864 3.65633 8.60615C3.659 7.05396 4.80448 5.75513 6.41934 5.91248C7.44614 6.01249 8.41426 6.63391 8.92099 7.53935C9.20769 7.92207 9.41705 8.39279 9.46239 8.87285C9.56507 8.85685 9.61708 8.84885 9.72242 8.83285C9.72242 8.50081 9.72242 8.16743 9.72242 7.83539C9.92912 8.13676 10.1385 8.43413 10.3518 8.7315C10.7052 8.67283 11.0573 8.61015 11.4093 8.54214C11.1906 8.78884 10.9719 9.03287 10.7532 9.27824C10.9706 9.57161 11.1893 9.86364 11.4093 10.1543Z" fill="#E30A17"/>
<path d="M7.17803 10.94C5.96454 10.8093 4.80306 9.87588 4.80306 8.56372C4.80306 7.26889 5.93254 6.39145 7.18603 6.54613C7.87011 6.63014 8.50486 6.98885 8.92091 7.53826C8.41552 6.63281 7.44606 6.0114 6.41927 5.91139C4.8044 5.75403 3.65892 7.05286 3.65625 8.60506C3.65359 10.1839 4.89241 11.2827 6.41127 11.4054C7.32605 11.4787 8.35418 11.2681 8.91958 10.4693C8.45285 10.9147 7.7861 11.0054 7.17803 10.94Z" fill="white"/>
<path d="M8.77452 8.97732C9.00388 8.94265 9.23324 8.90665 9.4626 8.87064C9.4186 8.39058 9.2079 7.91986 8.9212 7.53714C8.50515 6.98774 7.8704 6.62903 7.18765 6.54502C5.93416 6.39033 4.80469 7.26644 4.80469 8.56261C4.80469 9.87477 5.96483 10.8082 7.17965 10.9389C7.78773 11.0042 8.45448 10.9136 8.92254 10.4695C9.24124 10.1628 9.4026 9.75476 9.46527 9.32537C9.23324 9.21069 9.00388 9.09201 8.77452 8.97732Z" fill="#E30A17"/>
<path d="M10.351 8.73205C10.1376 8.43601 9.92691 8.13731 9.72156 7.83594C9.72156 8.16798 9.72156 8.50002 9.72156 8.83206C9.61754 8.8494 9.56554 8.8574 9.46286 8.8734C9.2335 8.90941 9.0028 8.94541 8.77344 8.97875C9.0028 9.09476 9.23216 9.21344 9.46286 9.32546C9.5642 9.3748 9.61621 9.40013 9.72156 9.44814C9.72156 9.78018 9.72156 10.1122 9.72156 10.4443C9.92958 10.2029 10.1403 9.9642 10.351 9.72684C10.7017 9.87486 11.0537 10.0162 11.4084 10.1536C11.1884 9.86286 10.9684 9.57082 10.751 9.27878C10.9697 9.03342 11.1897 8.78806 11.4071 8.54269C11.0564 8.6107 10.7043 8.67204 10.351 8.73205Z" fill="white"/>
<g opacity="0.3">
<path d="M4.4631 3.46646C6.16865 3.46646 7.44614 3.67848 8.79964 3.90384C10.1838 4.13321 11.616 4.3719 13.5482 4.3719C14.1403 4.3719 14.7484 4.29056 15.3538 4.13054C15.7605 4.02253 16.1792 3.87717 16.602 3.69448V13.7917C16.1112 14.0238 15.6218 14.2025 15.1458 14.3251C14.6057 14.4638 14.0643 14.5345 13.5349 14.5345C11.6667 14.5345 10.2865 14.3105 8.95166 14.0945C7.63283 13.8798 6.26733 13.6584 4.4631 13.6584C3.85369 13.6584 3.24828 13.7291 2.66154 13.8691C2.24016 13.9691 1.81744 14.1065 1.40005 14.2811V4.22122C1.89478 3.98652 2.38417 3.80517 2.85623 3.68115C3.39897 3.53847 3.93903 3.46646 4.4631 3.46646ZM17.002 3.06641C15.8125 3.66648 14.6764 3.97185 13.5482 3.97185C9.8051 3.97185 7.99154 3.06641 4.4631 3.06641C3.33629 3.06641 2.18815 3.37311 1 3.97185C1 7.20426 1 11.6741 1 14.9066C2.18682 14.3078 3.33629 14.0584 4.4631 14.0584C8.04888 14.0584 9.7771 14.9346 13.5349 14.9346C14.663 14.9346 15.8125 14.6412 17.002 14.0424C17.002 10.81 17.002 6.29881 17.002 3.06641Z" fill="#212121"/>
</g>
</svg>
